Coordinates
version=1
nRows=6
nColumns=36
inDegrees=yes

Units are S.I. units (second, meters, Newtons, ...)
If the header above contains a line with 'inDegrees', this indicates whether rotational values are in degrees (yes) or radians (no).

endheader
time	pelvis_tilt	pelvis_list	pelvis_rotation	pelvis_tx	pelvis_ty	pelvis_tz	hip_flexion_r	hip_adduction_r	hip_rotation_r	knee_angle_r	knee_angle_r_beta	ankle_angle_r	subtalar_angle_r	mtp_angle_r	hip_flexion_l	hip_adduction_l	hip_rotation_l	knee_angle_l	knee_angle_l_beta	ankle_angle_l	subtalar_angle_l	mtp_angle_l	lumbar_extension	lumbar_bending	lumbar_rotation	arm_flex_r	arm_add_r	arm_rot_r	elbow_flex_r	pro_sup_r	arm_flex_l	arm_add_l	arm_rot_l	elbow_flex_l	pro_sup_l
      1.10000000	    -10.61804383	     -2.25624844	     -3.88045068	     -0.51139214	      1.07435212	     -0.60821465	     36.06651412	     -3.94535024	    -12.93094014	     23.26060441	      0.40597413	    -12.01167966	      5.04197213	     -6.31227473	     37.76173562	    -11.12495953	    -13.27349074	      6.59905145	      0.11517518	    -31.83211097	      2.31246544	     -6.31227473	    -25.32519786	     -0.83091065	      3.00978437	     24.72611758	    -13.52982993	     -6.24062145	    105.08262140	    102.37551379	     -4.41461846	    -12.91653957	     -7.55546566	     88.60688981	    109.73584847
      1.11000000	    -10.38194105	     -2.06941985	     -4.06112178	     -0.49823816	      1.05677502	     -0.60873864	     36.17253724	     -4.24831734	    -12.64286529	     21.49072264	      0.37508387	    -12.73519877	      4.15438486	     -6.35094399	     37.79054423	    -11.39268073	    -12.70416156	      7.57554448	      0.13221819	    -32.20165959	      1.89548653	     -6.35094399	    -25.43784763	     -1.33715207	      3.12911003	     24.23563590	    -14.49687712	     -6.23289863	    106.54541214	    102.04049939	     -4.99512941	    -13.62030671	     -8.37247636	     91.36547938	    109.43235225
      1.12000000	    -10.05401190	     -1.82667464	     -4.16274205	     -0.48518185	      1.03823664	     -0.60948085	     36.41382226	     -4.79231067	    -12.37817507	     20.56346951	      0.35890025	    -13.41991016	      3.44397459	     -6.46946062	     37.98388622	    -11.63205566	    -11.92246393	      9.25053622	      0.16145231	    -32.54623780	      2.06530783	     -6.46946062	    -25.62093548	     -1.85383559	      3.20987352	     23.95262490	    -15.73290476	     -5.98033897	    108.10208514	     99.74674954	     -5.56393591	    -14.42091483	     -8.73833175	     94.28160684	    106.70023779
      1.13000000	     -9.71697100	     -1.66223955	     -4.17286946	     -0.47266307	      1.01855576	     -0.61023215	     36.87328184	     -5.21149250	    -11.46672278	     20.34459493	      0.35508017	    -15.35801428	     -0.13408808	     -6.52846259	     38.47018590	    -11.82707534	    -10.44826762	     11.56694681	      0.20188131	    -33.54505706	     -0.15330174	     -6.52846259	    -25.91485443	     -2.28684206	      2.92852637	     24.20312042	    -16.59179347	     -5.85169328	    109.31893504	     99.61363469	     -6.27086877	    -15.13994430	     -9.95379500	     97.43420657	    106.99978885
      1.14000000	     -9.19919149	     -1.44242825	     -4.07956945	     -0.46005842	      0.99805446	     -0.61118908	     37.35876299	     -5.92219127	    -10.91163379	     21.05088664	      0.36740728	    -15.15810846	     -0.97628088	     -6.56947641	     39.03813392	    -11.99105648	     -9.45316682	     14.58926548	      0.25463072	    -33.77643432	     -0.70136247	     -6.56947641	    -26.41373037	     -2.73892195	      2.83152342	     24.37017908	    -17.76633947	     -5.87668164	    110.90082930	     99.07874078	     -6.50984437	    -16.03861388	    -10.54215281	    100.48531414	    106.53310889
      1.15000000	     -8.81296890	     -1.22344967	     -3.88338911	     -0.44769923	      0.97601245	     -0.61232226	     38.17541111	     -6.65376400	    -10.14721305	     22.28077804	      0.38887294	    -15.46126982	     -2.03350853	     -6.61758801	     39.91323823	    -11.92293505	     -7.71331858	     17.78500292	      0.31040686	    -35.03008787	     -2.23183577	     -6.61758801	    -26.74475017	     -3.12132176	      2.32733442	     25.01141986	    -18.70672812	     -5.75711973	    112.09034786	     98.77979001	     -6.94627499	    -16.81069888	    -11.82233517	    103.67942367	    106.55063663
